<svg width="32" height="32" viewBox="0 0 32 32" fill="none" xmlns="http://www.w3.org/2000/svg">
<g clip-path="url(#clip0_1_46)">
<path d="M19.3845 28.1095C16.3753 29.1457 13.0778 28.9441 10.2172 27.549C7.3567 26.1539 5.16754 23.6795 4.13132 20.6704C3.051 17.4943 3.2403 14.0236 4.65965 10.9839L6.5277 7.15364" stroke="#27303C" stroke-width="2" stroke-linecap="round" stroke-linejoin="round"/>
<path d="M2.03831 7.92825L6.73467 6.70318L7.95973 11.3995" stroke="#27303C" stroke-width="2" stroke-linecap="round" stroke-linejoin="round"/>
<path d="M11.5702 5.41709C14.5794 4.38088 17.877 4.58251 20.7375 5.97761C23.598 7.37271 25.7872 9.84701 26.8234 12.8562C27.9037 16.0322 27.7144 19.503 26.2951 22.5427L24.7694 25.6759" stroke="#27303C" stroke-width="2" stroke-linecap="round" stroke-linejoin="round"/>
<path d="M22.6665 21.3333L24.4272 26.3728L29.3333 24.6667" stroke="#27303C" stroke-width="1.72239" stroke-linecap="round" stroke-linejoin="round"/>
<path d="M15.6768 10L17.843 14.3884L22.687 15.0964L19.1819 18.5103L20.0091 23.3333L15.6768 21.055L11.3446 23.3333L12.1718 18.5103L8.66667 15.0964L13.5107 14.3884L15.6768 10Z" stroke="#27303C" stroke-width="1.61265" stroke-linecap="round" stroke-linejoin="round"/>
</g>
<defs>
<clipPath id="clip0_1_46">
<rect width="32" height="32" fill="white"/>
</clipPath>
</defs>
</svg>
